<svg xmlns="http://www.w3.org/2000/svg" xmlns:xlink="http://www.w3.org/1999/xlink" width="16" height="16" viewBox="0 0 16 16">
  <defs>
    <clipPath id="clip-path">
      <rect id="Rectangle_2" data-name="Rectangle 2" width="16" height="16"/>
    </clipPath>
  </defs>
  <g id="Artboard_1" data-name="Artboard – 1" clip-path="url(#clip-path)">
    <rect width="16" height="16" fill="#fff"/>
    <g id="phone-solid" transform="translate(16) rotate(90)" clip-path="url(#clip-path)">
      <rect id="Rectangle_1" data-name="Rectangle 1" width="16" height="16" fill="#fff"/>
      <path id="phone-solid-2" data-name="phone-solid" d="M15.408.758l-3.25-.75A.755.755,0,0,0,11.3.443l-1.5,3.5a.748.748,0,0,0,.216.875l1.894,1.55A11.581,11.581,0,0,1,6.371,11.9l-1.55-1.894A.749.749,0,0,0,3.946,9.8l-3.5,1.5a.759.759,0,0,0-.437.862l.75,3.25a.75.75,0,0,0,.731.581,14.5,14.5,0,0,0,14.5-14.5.749.749,0,0,0-.582-.735Z" transform="translate(0.01 0.011)"/>
    </g>
  </g>
</svg>
